<mxfile host="app.diagrams.net" modified="2021-10-27T13:21:32.187Z" agent="5.0 (Windows NT 10.0; Win64; x64) AppleWebKit/537.36 (KHTML, like Gecko) Chrome/95.0.4638.54 Safari/537.36" etag="Yd2oIDI848IMTHszx5zP" version="15.5.9" type="github">
  <diagram id="HAKAWvGEWvsn3o2FBYGl" name="第 1 页">
    <mxGraphModel dx="1038" dy="539" grid="1" gridSize="10" guides="1" tooltips="1" connect="1" arrows="1" fold="1" page="1" pageScale="1" pageWidth="827" pageHeight="1169" math="0" shadow="0">
      <root>
        <mxCell id="0" />
        <mxCell id="1" parent="0" />
        <mxCell id="RreB9xDPNXfKv7OqgoEP-4" style="edgeStyle=orthogonalEdgeStyle;rounded=0;orthogonalLoop=1;jettySize=auto;html=1;exitX=1;exitY=0.5;exitDx=0;exitDy=0;entryX=0;entryY=0.5;entryDx=0;entryDy=0;" edge="1" parent="1" source="RreB9xDPNXfKv7OqgoEP-1" target="RreB9xDPNXfKv7OqgoEP-3">
          <mxGeometry relative="1" as="geometry" />
        </mxCell>
        <mxCell id="RreB9xDPNXfKv7OqgoEP-5" value="选课请求" style="edgeLabel;html=1;align=center;verticalAlign=middle;resizable=0;points=[];" vertex="1" connectable="0" parent="RreB9xDPNXfKv7OqgoEP-4">
          <mxGeometry x="-0.1723" y="-1" relative="1" as="geometry">
            <mxPoint as="offset" />
          </mxGeometry>
        </mxCell>
        <mxCell id="RreB9xDPNXfKv7OqgoEP-1" value="同学" style="html=1;dashed=0;whitespace=wrap;" vertex="1" parent="1">
          <mxGeometry x="130" y="280" width="60" height="30" as="geometry" />
        </mxCell>
        <mxCell id="RreB9xDPNXfKv7OqgoEP-9" style="edgeStyle=orthogonalEdgeStyle;rounded=0;orthogonalLoop=1;jettySize=auto;html=1;exitX=1;exitY=0.5;exitDx=0;exitDy=0;entryX=0;entryY=0.5;entryDx=0;entryDy=0;" edge="1" parent="1" source="RreB9xDPNXfKv7OqgoEP-3" target="RreB9xDPNXfKv7OqgoEP-11">
          <mxGeometry relative="1" as="geometry">
            <mxPoint x="530" y="295" as="targetPoint" />
          </mxGeometry>
        </mxCell>
        <mxCell id="RreB9xDPNXfKv7OqgoEP-10" value="允许选课" style="edgeLabel;html=1;align=center;verticalAlign=middle;resizable=0;points=[];" vertex="1" connectable="0" parent="RreB9xDPNXfKv7OqgoEP-9">
          <mxGeometry x="-0.28" y="-2" relative="1" as="geometry">
            <mxPoint as="offset" />
          </mxGeometry>
        </mxCell>
        <mxCell id="RreB9xDPNXfKv7OqgoEP-3" value="判断是否&lt;br&gt;超过第一周" style="shape=ellipse;html=1;dashed=0;whitespace=wrap;aspect=fixed;perimeter=ellipsePerimeter;" vertex="1" parent="1">
          <mxGeometry x="320" y="255" width="80" height="80" as="geometry" />
        </mxCell>
        <mxCell id="RreB9xDPNXfKv7OqgoEP-7" style="edgeStyle=orthogonalEdgeStyle;rounded=0;orthogonalLoop=1;jettySize=auto;html=1;exitX=0.5;exitY=0;exitDx=0;exitDy=0;" edge="1" parent="1" source="RreB9xDPNXfKv7OqgoEP-6" target="RreB9xDPNXfKv7OqgoEP-3">
          <mxGeometry relative="1" as="geometry" />
        </mxCell>
        <mxCell id="RreB9xDPNXfKv7OqgoEP-8" value="日期" style="edgeLabel;html=1;align=center;verticalAlign=middle;resizable=0;points=[];" vertex="1" connectable="0" parent="RreB9xDPNXfKv7OqgoEP-7">
          <mxGeometry x="0.2576" y="2" relative="1" as="geometry">
            <mxPoint as="offset" />
          </mxGeometry>
        </mxCell>
        <mxCell id="RreB9xDPNXfKv7OqgoEP-6" value="时钟" style="html=1;dashed=0;whitespace=wrap;" vertex="1" parent="1">
          <mxGeometry x="330" y="380" width="60" height="30" as="geometry" />
        </mxCell>
        <mxCell id="RreB9xDPNXfKv7OqgoEP-14" style="edgeStyle=orthogonalEdgeStyle;rounded=0;orthogonalLoop=1;jettySize=auto;html=1;exitX=0.5;exitY=0;exitDx=0;exitDy=0;entryX=0;entryY=0.75;entryDx=0;entryDy=0;" edge="1" parent="1" source="RreB9xDPNXfKv7OqgoEP-11" target="RreB9xDPNXfKv7OqgoEP-16">
          <mxGeometry relative="1" as="geometry">
            <mxPoint x="580" y="170" as="targetPoint" />
          </mxGeometry>
        </mxCell>
        <mxCell id="RreB9xDPNXfKv7OqgoEP-15" value="取消课程" style="edgeLabel;html=1;align=center;verticalAlign=middle;resizable=0;points=[];" vertex="1" connectable="0" parent="RreB9xDPNXfKv7OqgoEP-14">
          <mxGeometry x="-0.2607" y="-1" relative="1" as="geometry">
            <mxPoint as="offset" />
          </mxGeometry>
        </mxCell>
        <mxCell id="RreB9xDPNXfKv7OqgoEP-18" style="edgeStyle=orthogonalEdgeStyle;rounded=0;orthogonalLoop=1;jettySize=auto;html=1;exitX=1;exitY=0.5;exitDx=0;exitDy=0;entryX=0;entryY=0.5;entryDx=0;entryDy=0;" edge="1" parent="1" source="RreB9xDPNXfKv7OqgoEP-11" target="RreB9xDPNXfKv7OqgoEP-17">
          <mxGeometry relative="1" as="geometry" />
        </mxCell>
        <mxCell id="RreB9xDPNXfKv7OqgoEP-19" value="选课数据" style="edgeLabel;html=1;align=center;verticalAlign=middle;resizable=0;points=[];" vertex="1" connectable="0" parent="RreB9xDPNXfKv7OqgoEP-18">
          <mxGeometry x="-0.3108" relative="1" as="geometry">
            <mxPoint as="offset" />
          </mxGeometry>
        </mxCell>
        <mxCell id="RreB9xDPNXfKv7OqgoEP-11" value="判断为取消请求&lt;br&gt;还是选课请求" style="shape=ellipse;html=1;dashed=0;whitespace=wrap;aspect=fixed;perimeter=ellipsePerimeter;" vertex="1" parent="1">
          <mxGeometry x="540" y="255" width="80" height="80" as="geometry" />
        </mxCell>
        <mxCell id="RreB9xDPNXfKv7OqgoEP-20" style="rounded=0;orthogonalLoop=1;jettySize=auto;html=1;exitX=0.5;exitY=1;exitDx=0;exitDy=0;entryX=0;entryY=0;entryDx=0;entryDy=0;" edge="1" parent="1" source="RreB9xDPNXfKv7OqgoEP-16" target="RreB9xDPNXfKv7OqgoEP-17">
          <mxGeometry relative="1" as="geometry" />
        </mxCell>
        <mxCell id="RreB9xDPNXfKv7OqgoEP-21" value="课程数据" style="edgeLabel;html=1;align=center;verticalAlign=middle;resizable=0;points=[];" vertex="1" connectable="0" parent="RreB9xDPNXfKv7OqgoEP-20">
          <mxGeometry x="-0.3225" relative="1" as="geometry">
            <mxPoint as="offset" />
          </mxGeometry>
        </mxCell>
        <mxCell id="RreB9xDPNXfKv7OqgoEP-16" value="课程文件" style="html=1;dashed=0;whitespace=wrap;shape=partialRectangle;right=0;left=0;" vertex="1" parent="1">
          <mxGeometry x="650" y="100" width="100" height="30" as="geometry" />
        </mxCell>
        <mxCell id="RreB9xDPNXfKv7OqgoEP-22" style="edgeStyle=none;rounded=0;orthogonalLoop=1;jettySize=auto;html=1;exitX=1;exitY=0;exitDx=0;exitDy=0;entryX=1;entryY=1;entryDx=0;entryDy=0;" edge="1" parent="1" source="RreB9xDPNXfKv7OqgoEP-17" target="RreB9xDPNXfKv7OqgoEP-16">
          <mxGeometry relative="1" as="geometry" />
        </mxCell>
        <mxCell id="RreB9xDPNXfKv7OqgoEP-23" value="未满写入课程数据" style="edgeLabel;html=1;align=center;verticalAlign=middle;resizable=0;points=[];" vertex="1" connectable="0" parent="RreB9xDPNXfKv7OqgoEP-22">
          <mxGeometry x="-0.3537" y="-1" relative="1" as="geometry">
            <mxPoint as="offset" />
          </mxGeometry>
        </mxCell>
        <mxCell id="RreB9xDPNXfKv7OqgoEP-17" value="判断当前人数&lt;br&gt;是否已满" style="shape=ellipse;html=1;dashed=0;whitespace=wrap;aspect=fixed;perimeter=ellipsePerimeter;" vertex="1" parent="1">
          <mxGeometry x="710" y="255" width="80" height="80" as="geometry" />
        </mxCell>
      </root>
    </mxGraphModel>
  </diagram>
</mxfile>
